<svg xmlns="http://www.w3.org/2000/svg" width="96.138" height="65.823" viewBox="0 0 96.138 65.823">
  <path id="laravel-1" d="M95.757,30.741c-.686-.686-9.484-11.77-10.97-13.6-1.6-1.828-2.285-1.486-3.314-1.371S69.361,17.828,68.1,17.942c-1.257.229-2.057.686-1.257,1.828.686,1.028,8,11.313,9.6,13.712l-29.139,6.97L24.224,1.716C23.31.345,23.082-.112,21.025,0S2.856,1.488,1.713,1.488C.571,1.6-.686,2.059.456,4.8S19.882,46.853,20.339,48s1.828,2.971,4.914,2.285c3.2-.8,14.169-3.657,20.226-5.256,3.2,5.714,9.6,17.369,10.856,19.083,1.6,2.285,2.742,1.828,5.142,1.143,1.943-.571,29.939-10.627,31.2-11.2s2.057-.914,1.143-2.171c-.686-.914-8-10.856-11.884-16,2.628-.686,12.113-3.2,13.141-3.542,1.143-.343,1.371-.914.686-1.6ZM42.85,41.6c-.343.114-16.683,4-17.483,4.228-.914.229-.914.114-.914-.229C24.224,45.253,5.027,5.487,4.684,5.03c-.229-.457-.229-.914,0-.914S20.111,2.745,20.568,2.745c.571,0,.457.114.686.457,0,0,21.368,36.909,21.711,37.481.457.571.229.8-.114.914Zm45.937,8.57c.229.457.571.686-.343.914-.8.343-27.539,9.37-28.11,9.6s-.914.343-1.6-.686-9.37-16-9.37-16l28.453-7.428c.686-.229.914-.343,1.371.343.457.8,9.37,12.913,9.6,13.255Zm1.828-20.112c-.686.114-11.084,2.742-11.084,2.742l-8.57-11.656c-.229-.343-.457-.686.114-.8S81.359,18.514,81.817,18.4s.8-.229,1.371.571c.571.686,7.885,10.056,8.227,10.4s-.114.571-.8.686Z" transform="translate(-0.006 0.015)" fill="#ccc"/>
</svg>
