<svg xmlns="http://www.w3.org/2000/svg" width="99.902" height="74.884" viewBox="0 0 99.902 74.884">
  <path id="sass-1" d="M85.885,43.241a20.582,20.582,0,0,0-9.054,2.108A18.624,18.624,0,0,1,74.8,40.666a12.953,12.953,0,0,1-.176-3.942,31.586,31.586,0,0,1,1.19-4.254c-.02-.176-.215-1.034-2.225-1.054s-3.747.39-3.942.917a22.413,22.413,0,0,0-.839,2.986c-.351,1.834-4.02,8.332-6.108,11.747a11.985,11.985,0,0,1-1.386-3.435,12.952,12.952,0,0,1-.175-3.942,31.6,31.6,0,0,1,1.19-4.254c-.02-.176-.215-1.034-2.224-1.054s-3.747.39-3.942.917-.41,1.776-.839,2.986c-.41,1.21-5.288,12.06-6.557,14.889-.644,1.444-1.21,2.6-1.62,3.376s-.02.059-.059.137c-.351.663-.546,1.034-.546,1.034v.02c-.273.488-.566.956-.7.956a6.508,6.508,0,0,1,.039-3.1c.722-3.766,2.478-9.64,2.459-9.855,0-.1.332-1.132-1.132-1.659a1.778,1.778,0,0,0-2.049.351c-.117,0-.215.312-.215.312s1.581-6.615-3.025-6.615c-2.888,0-6.869,3.142-8.84,6.01-1.249.683-3.9,2.127-6.713,3.669-1.073.585-2.186,1.21-3.239,1.776l-.214-.235C17.333,43.4,7.01,39.182,7.439,31.182,7.6,28.274,8.61,20.605,27.266,11.317c15.279-7.61,27.515-5.522,29.641-.878,3.025,6.635-6.537,18.967-22.421,20.743-6.049.683-9.23-1.659-10.03-2.537-.839-.917-.956-.956-1.268-.781-.507.273-.2,1.093,0,1.581.468,1.229,2.42,3.415,5.737,4.508,2.907.956,10.011,1.483,18.6-1.834C57.141,28.391,64.654,18.049,62.449,9.4,60.2.6,45.609-2.285,31.812,2.613,23.6,5.54,14.7,10.107,8.3,16.1.687,23.2-.522,29.406-.015,31.982,1.761,41.173,14.425,47.164,19.5,51.593c-.254.136-.488.273-.7.39-2.537,1.249-12.2,6.3-14.616,11.65-2.732,6.049.429,10.4,2.537,10.987,6.518,1.815,13.191-1.444,16.8-6.81,3.59-5.366,3.161-12.333,1.5-15.514l-.059-.117,1.99-1.171c1.288-.761,2.557-1.464,3.669-2.069a24.3,24.3,0,0,0-1.307,6.635c-.273,3.435,1.132,7.884,2.986,9.64a3.3,3.3,0,0,0,2.4.781c2.147,0,3.122-1.776,4.2-3.9,1.327-2.6,2.5-5.6,2.5-5.6s-1.464,8.137,2.537,8.137c1.464,0,2.927-1.893,3.591-2.869v.02s.039-.059.117-.2q.123-.182.234-.371v-.039c.585-1.015,1.893-3.337,3.844-7.181,2.517-4.957,4.937-11.162,4.937-11.162a35.617,35.617,0,0,0,.956,4.02A38.467,38.467,0,0,0,59.7,51.535c-.585.82-.937,1.288-.937,1.288l.02.02c-.468.624-1,1.288-1.541,1.951-1.99,2.381-4.371,5.093-4.683,5.874a1.608,1.608,0,0,0,.429,2.147,3.906,3.906,0,0,0,2.459.39,10.953,10.953,0,0,0,3.669-.839,12.705,12.705,0,0,0,3.161-1.659A7.038,7.038,0,0,0,65.3,54.482a12.516,12.516,0,0,0-1.151-4.391c.176-.254.351-.508.527-.781a82.373,82.373,0,0,0,5.464-9.464,35.618,35.618,0,0,0,.956,4.02,28.182,28.182,0,0,0,1.776,4.02,17.348,17.348,0,0,0-5.327,6.888c-1.151,3.317-.254,4.82,1.444,5.171a5.194,5.194,0,0,0,2.673-.546,12.114,12.114,0,0,0,3.376-1.737c1.951-1.444,3.825-3.454,3.727-6.166a11.821,11.821,0,0,0-.839-3.649A19.011,19.011,0,0,1,87.6,46.735c8.684,1.015,10.4,6.44,10.069,8.7a5.829,5.829,0,0,1-2.752,3.9c-.6.371-.8.508-.742.781.078.41.351.39.878.312a6.755,6.755,0,0,0,4.722-6.03c.234-5.367-4.859-11.221-13.894-11.163ZM18.913,65.819c-2.869,3.142-6.908,4.332-8.625,3.317-1.854-1.073-1.132-5.7,2.4-9.035a45.915,45.915,0,0,1,6.771-5.054c.41-.254,1.034-.624,1.776-1.073a2.081,2.081,0,0,1,.2-.117c.137-.078.293-.176.449-.273a12.447,12.447,0,0,1-2.966,12.235ZM39.891,51.554c-1,2.439-3.1,8.7-4.371,8.352-1.093-.293-1.756-5.035-.215-9.718a21.694,21.694,0,0,1,3.415-6.264c1.581-1.756,3.3-2.342,3.727-1.62C42.954,43.241,40.515,50.032,39.891,51.554ZM57.2,59.828c-.429.215-.82.371-1,.254-.137-.078.175-.371.175-.371s2.166-2.322,3.025-3.4c.488-.624,1.073-1.346,1.7-2.166v.234c0,2.81-2.693,4.683-3.9,5.444Zm13.347-3.044c-.312-.234-.273-.956.781-3.22a12.065,12.065,0,0,1,2.966-3.825,4.827,4.827,0,0,1,.293,1.678A5.491,5.491,0,0,1,70.547,56.784Z" transform="translate(0.116 -0.241)" fill="#ccc"/>
</svg>
