<svg xmlns="http://www.w3.org/2000/svg" width="119.114" height="49.565" viewBox="0 0 119.114 49.565">
  <path id="stripe-4" d="M8.371,19.422c0-1.29,1.059-1.787,2.813-1.787a18.455,18.455,0,0,1,8.205,2.118V11.978a21.82,21.82,0,0,0-8.205-1.522C4.467,10.456,0,13.963,0,19.82,0,28.951,12.573,27.5,12.573,31.433c0,1.522-1.323,2.018-3.176,2.018A20.6,20.6,0,0,1,.364,30.8v7.875A22.937,22.937,0,0,0,9.4,40.565c6.882,0,11.614-3.408,11.614-9.33-.033-9.86-12.639-8.107-12.639-11.812ZM30.738,3.838l-8.073,1.72-.033,26.5a8.314,8.314,0,0,0,8.57,8.5,12.779,12.779,0,0,0,5.79-1.092V32.756c-1.059.43-6.287,1.952-6.287-2.945V18.066h6.287V11.018H30.7Zm16.544,9.628-.529-2.448H39.606V39.969h8.272V20.349c1.952-2.548,5.261-2.085,6.287-1.721v-7.61c-1.059-.4-4.93-1.125-6.882,2.448Zm8.9-2.448h8.3V39.969h-8.3V11.018Zm0-2.515,8.3-1.787V0l-8.3,1.754V8.5Zm25.577,1.952a9.346,9.346,0,0,0-6.485,2.581l-.43-2.051H67.564v38.58l8.272-1.753.033-9.364a9.317,9.317,0,0,0,5.856,2.085c5.923,0,11.316-4.765,11.316-15.253-.033-9.6-5.493-14.823-11.283-14.823Zm-1.985,22.8a4.945,4.945,0,0,1-3.9-1.555l-.033-12.276A4.925,4.925,0,0,1,79.774,17.8c3.011,0,5.1,3.375,5.1,7.709,0,4.434-2.051,7.742-5.1,7.742Zm39.341-7.643c0-8.47-4.1-15.154-11.944-15.154-7.875,0-12.64,6.684-12.64,15.088,0,9.959,5.625,14.988,13.7,14.988a18.45,18.45,0,0,0,9.165-2.151V31.764a17.567,17.567,0,0,1-8.106,1.82c-3.21,0-6.055-1.125-6.419-5.029h16.18c0-.43.066-2.151.066-2.945Zm-16.345-3.143c0-3.739,2.283-5.294,4.368-5.294,2.018,0,4.169,1.555,4.169,5.294Z" fill="#ccc"/>
</svg>
